<?xml version="1.0" encoding="UTF-8"?>
<svg xmlns="http://www.w3.org/2000/svg" viewBox="0 0 400 300" width="400" height="300">
  <defs>
    <linearGradient id="bg-brownie.svg" x1="0" y1="0" x2="1" y2="1">
      <stop offset="0%" stop-color="#301b13"/>
      <stop offset="100%" stop-color="#130905"/>
    </linearGradient>
    <filter id="shadow" x="-10%" y="-10%" width="120%" height="120%">
      <feDropShadow dx="0" dy="4" stdDeviation="6" flood-opacity="0.35"/>
    </filter>
  </defs>
  <rect width="400" height="300" rx="16" fill="url(#bg-brownie.svg)"/>
  <circle cx="200" cy="150" r="130" fill="none" stroke="rgba(255,255,255,0.06)" stroke-width="2"/>
  <circle cx="200" cy="150" r="95" fill="none" stroke="rgba(255,255,255,0.04)" stroke-width="1.5"/>
  <g filter="url(#shadow)">
    <ellipse cx="200" cy="245" rx="90" ry="16" fill="rgba(0,0,0,0.4)"/>
           <path d="M120 170 L200 130 L280 170 L200 210 Z" fill="#4a2810" stroke="#2c1404" stroke-width="5"/>
           <path d="M120 170 L120 205 L200 245 L200 210 Z" fill="#2c1404"/>
           <path d="M280 170 L280 205 L200 245 L200 210 Z" fill="#381b07"/>
           <circle cx="190" cy="165" r="4" fill="#d4a373"/>
           <circle cx="220" cy="160" r="5" fill="#d4a373"/>
           <circle cx="170" cy="180" r="3" fill="#d4a373"/>
  </g>
  <rect x="20" y="240" width="110" height="26" rx="13" fill="rgba(0,0,0,0.45)" stroke="rgba(255,255,255,0.1)" stroke-width="1"/>
  <text x="75" y="257" font-family="-apple-system, BlinkMacSystemFont, 'Segoe UI', Roboto, sans-serif" font-size="11" font-weight="600" fill="#b07d62" text-anchor="middle">Dessert</text>
  <text x="380" y="258" font-family="-apple-system, BlinkMacSystemFont, 'Segoe UI', Roboto, sans-serif" font-size="15" font-weight="700" fill="#ffffff" text-anchor="end">Chocolate Brownie</text>
</svg>